<svg width="38" height="40" viewBox="0 0 38 40" fill="none" xmlns="http://www.w3.org/2000/svg">
<g clip-path="url(#clip0_9_2453)">
<circle cx="18.7724" cy="20.0004" r="15.2275" fill="#2E90FA"/>
<path fill-rule="evenodd" clip-rule="evenodd" d="M25.9111 4.45941C26.6544 5.20275 26.6544 6.40794 25.9111 7.15128L11.553 21.5093C10.8097 22.2527 9.60449 22.2527 8.86115 21.5093L3.59398 16.2422C2.85064 15.4988 2.85064 14.2936 3.59398 13.5503L17.952 -0.807753C18.6954 -1.55109 19.9006 -1.55109 20.6439 -0.807754L25.9111 4.45941Z" fill="white" fill-opacity="0.5"/>
<path fill-rule="evenodd" clip-rule="evenodd" d="M32.9821 24.6917C33.7255 25.4351 33.7255 26.6403 32.9821 27.3836L20.4818 39.8839C19.7385 40.6273 18.5333 40.6273 17.7899 39.8839L11.3577 33.4516C10.6143 32.7083 10.6143 31.5031 11.3577 30.7598L23.858 18.2595C24.6013 17.5161 25.8065 17.5161 26.5498 18.2595L32.9821 24.6917Z" fill="black" fill-opacity="0.3"/>
</g>
<defs>
<clipPath id="clip0_9_2453">
<rect x="4" y="5" width="30" height="30" rx="15" fill="white"/>
</clipPath>
</defs>
</svg>
