<svg width="302" height="39" viewBox="0 0 302 39" fill="none" xmlns="http://www.w3.org/2000/svg">
<path d="M6.55 24.7C7.25 25.9667 8.03333 27.0667 8.9 28C9.8 28.9333 10.7667 29.65 11.8 30.15C12.8667 30.65 13.9833 30.9 15.15 30.9C16.3833 30.9 17.4 30.6 18.2 30C19 29.3667 19.4 28.5167 19.4 27.45C19.4 26.55 19.1667 25.8333 18.7 25.3C18.2333 24.7333 17.4833 24.2 16.45 23.7C15.4167 23.2 14.05 22.6333 12.35 22C11.5167 21.7 10.55 21.2833 9.45 20.75C8.38333 20.2167 7.36667 19.5333 6.4 18.7C5.43333 17.8333 4.63333 16.8 4 15.6C3.36667 14.3667 3.05 12.8833 3.05 11.15C3.05 9.08333 3.58333 7.3 4.65 5.8C5.75 4.3 7.21667 3.16667 9.05 2.4C10.9167 1.6 12.9833 1.2 15.25 1.2C17.5833 1.2 19.6 1.58333 21.3 2.35C23.0333 3.11667 24.4667 4.08333 25.6 5.25C26.7333 6.41667 27.6 7.6 28.2 8.8L21.75 12.4C21.25 11.5667 20.6667 10.85 20 10.25C19.3667 9.61667 18.65 9.13333 17.85 8.8C17.0833 8.43333 16.25 8.25 15.35 8.25C14.15 8.25 13.2333 8.51666 12.6 9.05C11.9667 9.55 11.65 10.1833 11.65 10.95C11.65 11.75 11.95 12.45 12.55 13.05C13.1833 13.65 14.0667 14.2 15.2 14.7C16.3667 15.2 17.7667 15.7333 19.4 16.3C20.6333 16.7667 21.7833 17.3167 22.85 17.95C23.9167 18.55 24.85 19.2833 25.65 20.15C26.4833 21.0167 27.1333 22.0167 27.6 23.15C28.0667 24.2833 28.3 25.5833 28.3 27.05C28.3 28.8167 27.9333 30.4 27.2 31.8C26.5 33.1667 25.5333 34.3167 24.3 35.25C23.1 36.1833 21.7167 36.8833 20.15 37.35C18.6167 37.85 17.0333 38.1 15.4 38.1C13.1333 38.1 11.0167 37.7 9.05 36.9C7.11667 36.0667 5.43333 34.95 4 33.55C2.56667 32.15 1.45 30.6167 0.65 28.95L6.55 24.7ZM36.3 22.35V14.75H62.8V22.35H36.3ZM57.45 2H65.9V37H57.45V2ZM33.95 2H42.4V37H33.95V2ZM73.2566 2H81.8566V37H73.2566V2ZM89.2723 2H97.7223V37H89.2723V2ZM94.5723 8.95V2H101.422C104.389 2 106.872 2.46666 108.872 3.4C110.906 4.3 112.439 5.6 113.472 7.3C114.506 9 115.022 11.05 115.022 13.45C115.022 15.7833 114.506 17.8167 113.472 19.55C112.439 21.25 110.906 22.5667 108.872 23.5C106.872 24.4 104.389 24.85 101.422 24.85H94.5723V17.9H101.422C103.122 17.9 104.456 17.5167 105.422 16.75C106.389 15.9833 106.872 14.8833 106.872 13.45C106.872 11.9833 106.389 10.8667 105.422 10.1C104.456 9.33333 103.122 8.95 101.422 8.95H94.5723ZM117.575 3.55V2H137.925V3.55H128.575V37H126.925V3.55H117.575ZM148.845 20.75H150.645L162.145 37H160.145L148.845 20.75ZM143.145 2H144.795V37H143.145V2ZM143.895 3.5V2H149.995C152.262 2 154.278 2.38333 156.045 3.15C157.812 3.88333 159.212 4.98333 160.245 6.45C161.312 7.91667 161.845 9.73333 161.845 11.9C161.845 14.0333 161.312 15.85 160.245 17.35C159.212 18.8167 157.812 19.9333 156.045 20.7C154.278 21.4333 152.262 21.8 149.995 21.8H143.895V20.35H149.995C151.995 20.35 153.762 20.0333 155.295 19.4C156.828 18.7667 158.028 17.8333 158.895 16.6C159.762 15.3333 160.195 13.7667 160.195 11.9C160.195 10.0333 159.762 8.48333 158.895 7.25C158.028 5.98333 156.828 5.05 155.295 4.45C153.762 3.81667 151.995 3.5 149.995 3.5H143.895ZM170.251 24.3L170.701 22.8H187.351L187.801 24.3H170.251ZM179.001 4.75L171.451 23.35L171.301 23.75L165.951 37H164.151L179.001 0.949999L193.851 37H192.001L186.751 23.85L186.601 23.45L179.001 4.75ZM197.045 19.5C197.045 22.6333 197.695 25.4333 198.995 27.9C200.329 30.3333 202.129 32.25 204.395 33.65C206.662 35.05 209.229 35.75 212.095 35.75C213.762 35.75 215.262 35.5833 216.595 35.25C217.962 34.9167 219.195 34.4167 220.295 33.75C221.395 33.05 222.412 32.2167 223.345 31.25V33.45C221.879 34.75 220.279 35.75 218.545 36.45C216.812 37.1167 214.662 37.45 212.095 37.45C209.662 37.45 207.412 37.0167 205.345 36.15C203.312 35.25 201.545 34 200.045 32.4C198.545 30.7667 197.379 28.8667 196.545 26.7C195.712 24.5 195.295 22.1 195.295 19.5C195.295 16.9 195.712 14.5167 196.545 12.35C197.379 10.15 198.545 8.25 200.045 6.65C201.545 5.01667 203.312 3.76667 205.345 2.9C207.412 2 209.662 1.55 212.095 1.55C214.662 1.55 216.812 1.9 218.545 2.6C220.279 3.26666 221.879 4.25 223.345 5.55V7.7C222.445 6.73333 221.412 5.91667 220.245 5.25C219.112 4.58333 217.862 4.08333 216.495 3.75C215.162 3.41667 213.695 3.25 212.095 3.25C209.229 3.25 206.662 3.95 204.395 5.35C202.129 6.71667 200.329 8.61667 198.995 11.05C197.695 13.4833 197.045 16.3 197.045 19.5ZM231.374 2H232.974V37H231.374V2ZM248.024 2H250.124L234.574 18.4L250.874 37H248.774L232.524 18.45L248.024 2ZM256.639 37V35.45H273.789V37H256.639ZM256.639 3.55V2H273.789V3.55H256.639ZM256.639 18.45V16.9H272.789V18.45H256.639ZM255.889 2H257.539V37H255.889V2ZM287.712 20.75H289.512L301.012 37H299.012L287.712 20.75ZM282.012 2H283.662V37H282.012V2ZM282.762 3.5V2H288.862C291.129 2 293.145 2.38333 294.912 3.15C296.679 3.88333 298.079 4.98333 299.112 6.45C300.179 7.91667 300.712 9.73333 300.712 11.9C300.712 14.0333 300.179 15.85 299.112 17.35C298.079 18.8167 296.679 19.9333 294.912 20.7C293.145 21.4333 291.129 21.8 288.862 21.8H282.762V20.35H288.862C290.862 20.35 292.629 20.0333 294.162 19.4C295.695 18.7667 296.895 17.8333 297.762 16.6C298.629 15.3333 299.062 13.7667 299.062 11.9C299.062 10.0333 298.629 8.48333 297.762 7.25C296.895 5.98333 295.695 5.05 294.162 4.45C292.629 3.81667 290.862 3.5 288.862 3.5H282.762Z" fill="black"/>
</svg>
